<?xml version="1.0" encoding="UTF-8"?>
<svg width="64px" height="64px" viewBox="0 0 64 64" version="1.1" xmlns="http://www.w3.org/2000/svg" xmlns:xlink="http://www.w3.org/1999/xlink">
    <!-- Generator: Sketch 49.1 (51147) - http://www.bohemiancoding.com/sketch -->
    <title>Appliances Hover Copy</title>
    <desc>Created with Sketch.</desc>
    <defs></defs>
    <g id="Appliances-Hover-Copy" stroke="none" stroke-width="1" fill="none" fill-rule="evenodd">
        <g id="light-bulb-icon" transform="translate(11.000000, 1.000000)" fill="#FFFFFF" fill-rule="nonzero" stroke="#FFFFFF">
            <path d="M15.2591255,62.8938813 C14.6397527,62.8938813 14.1372376,62.3996061 14.1372376,61.7903893 C14.1372376,61.1811725 14.6421098,60.6868972 15.2591255,60.6868972 L25.4028956,60.6868972 C26.0222684,60.6868972 26.5247835,61.1811725 26.5247835,61.7903893 C26.5247835,62.3996061 26.0222684,62.8938813 25.4028956,62.8938813 L15.2591255,62.8938813 Z" id="Shape"></path>
            <path d="M19.2745321,50.990518 C19.2745321,51.5975055 18.7743741,52.0893731 18.1573585,52.0893731 C17.5403428,52.0893731 17.0401848,51.5973271 17.0401848,50.990518 C17.0354706,46.3443482 16.8999375,42.8730074 16.2478373,39.6590143 C15.6028085,36.4819381 14.4481026,33.5369741 12.3984248,29.9045903 C12.0992547,29.3735766 12.2932619,28.704526 12.8308615,28.4102614 C13.3708182,28.1159969 14.0509316,28.306823 14.3524588,28.8356075 C16.5284226,32.6932374 17.7601875,35.8336643 18.4472815,39.2292097 C19.1273042,42.5810613 19.2699086,46.1811651 19.2745321,50.990518 Z" id="Shape"></path>
            <path d="M23.621927,50.990518 C23.621927,51.5975055 23.1216783,52.0893731 22.5047533,52.0893731 C21.8878283,52.0893731 21.3875796,51.5973271 21.3875796,50.990518 C21.3923845,46.1809868 21.5348076,42.5832906 22.2149209,39.2292097 C22.9021056,35.8336643 24.1338704,32.6934157 26.3098343,28.8356075 C26.609095,28.3045937 27.2914748,28.1137676 27.8291651,28.4102614 C28.3691218,28.704526 28.5605907,29.3758059 28.2616019,29.9045903 C26.2118334,33.5368849 25.0572182,36.4842565 24.4120986,39.6590143 C23.7621743,42.8730074 23.6243747,46.3444374 23.621927,50.990518 Z" id="Shape"></path>
            <path d="M13.0341159,30.417324 C12.4451134,30.2333641 12.1225537,29.6127334 12.3095803,29.0332998 C12.4988734,28.4539553 13.1275839,28.1366846 13.716677,28.3206445 C14.4973296,28.568986 15.1728195,28.9023074 15.7968158,29.2103935 L15.8575563,29.2425843 C16.8321256,29.7253565 17.6432392,30.1023718 18.2462029,29.6195996 L19.6251958,28.5137891 C20.1043212,28.132226 20.8103626,28.2034737 21.1981959,28.6747429 C21.5862104,29.146012 21.5136843,29.840298 21.0345589,30.2219502 L19.6555661,31.3277607 C17.9376951,32.7025112 16.5329555,32.0335498 14.8408313,31.1989977 L14.7894284,31.1759915 C14.2424911,30.904644 13.6487745,30.6126978 13.0341159,30.417324 Z" id="Shape"></path>
            <path d="M21.4530344,5.37951266 C21.4530344,5.98872945 20.9505193,6.48300473 20.3310559,6.48300473 C19.7116831,6.48300473 19.209168,5.98872945 19.209168,5.37951266 L19.209168,1.10349206 C19.209168,0.494275273 19.7116831,0 20.3310559,0 C20.95061,0 21.4530344,0.494275273 21.4530344,1.10349206 L21.4530344,5.37951266 Z" id="Shape"></path>
            <path d="M26.9456161,28.3206445 C27.5346185,28.1344553 28.1656861,28.4540444 28.3527128,29.0332998 C28.5420058,29.6126442 28.2171796,30.2333641 27.6281772,30.417324 C27.0136093,30.6126978 26.4198926,30.9069624 25.8705075,31.17831 L25.8191953,31.2013161 C24.1292469,32.035779 22.7223315,32.7071481 21.0044606,31.32999 L19.6254677,30.2242686 C19.1463423,29.8426164 19.0739069,29.1483304 19.4618308,28.6770613 C19.8498453,28.2057922 20.5557054,28.1345445 21.0349215,28.5161075 L22.4139144,29.621918 C23.0169688,30.1046902 23.8256346,29.7253565 24.8026516,29.2449027 L24.8635735,29.212712 C25.4894736,28.9023074 26.1648728,28.568986 26.9456161,28.3206445 Z" id="Shape"></path>
            <path d="M34.4459011,17.1524131 C38.0569748,20.7042754 40.2937699,25.6148374 40.2937699,31.0357254 C40.2937699,33.1554111 39.9479111,35.2036707 39.3121294,37.1234348 C38.6554057,39.107402 37.6807458,40.9580586 36.4536951,42.6087935 C34.3945889,45.3789822 32.7234972,47.1974479 31.4262776,48.6111661 C29.0913003,51.1514717 28.0675946,52.2643268 28.0675946,55.9793721 C28.0675946,56.5885889 27.5650795,57.0828642 26.9457067,57.0828642 L26.9175122,57.0828642 L20.3801923,57.0828642 L13.8125021,57.0828642 C13.1931293,57.0828642 12.6882571,56.5885889 12.6882571,55.9793721 C12.6882571,52.3010653 11.6435189,51.1768855 9.32495062,48.6778661 L9.32259353,48.6756368 L9.32023643,48.6778661 C8.00905548,47.2663771 6.32155482,45.4478222 4.21095511,42.6087043 C2.98390442,40.9579694 2.00924451,39.1050836 1.35252081,37.1211163 C0.716739027,35.2037599 0.370880263,33.1530926 0.370880263,31.0358146 C0.370880263,28.3828859 0.91083696,25.8448096 1.88776332,23.5274317 L1.90879588,23.4837378 C2.92316383,21.0927938 4.40033885,18.9410066 6.22101553,17.1525023 C8.05347771,15.3501765 10.2528312,13.8925861 12.7023091,12.8948509 L12.7023091,12.8925325 C15.0582282,11.931625 17.6386157,11.400522 20.3358607,11.400522 C23.0285729,11.400522 25.6064219,11.931625 27.9647889,12.8925325 C30.4094619,13.8902677 32.6134389,15.3500873 34.4459011,17.1524131 Z M38.0476371,31.0357254 C38.0476371,26.2240542 36.0631421,21.8676013 32.8589397,18.7133528 C31.2206661,17.101764 29.2688985,15.8052165 27.1092531,14.9269706 C25.0291143,14.0786861 22.7385592,13.6097354 20.3310559,13.6097354 C17.9260003,13.6097354 15.6355359,14.0786861 13.5576636,14.9269706 L13.5576636,14.9247413 L13.5529494,14.9269706 C11.3933039,15.8052165 9.44407472,17.101764 7.80561982,18.7133528 C6.18357394,20.3088017 4.872393,22.2123366 3.97714914,24.3135639 L3.95375948,24.3733085 C3.09369078,26.4170204 2.61456534,28.6700168 2.61456534,31.0356363 C2.61456534,32.9253497 2.92071607,34.7461339 3.48170533,36.4403843 C4.0683507,38.203564 4.93077649,39.8452035 6.01531343,41.3072525 C8.04178288,44.0337473 9.69184195,45.8109268 10.9750097,47.1947728 L10.9726526,47.197002 C13.4688191,49.8798922 14.7099217,51.2224519 14.903929,54.8777527 L20.3754781,54.8777527 L25.8470272,54.8777527 C26.0386774,51.1972165 27.2563903,49.8683891 29.7642517,47.1418051 C31.0170491,45.7785577 32.6274002,44.0244735 34.6445319,41.311711 C35.7289782,39.8518914 36.5914946,38.2104302 37.1757829,36.4471613 C37.7414863,34.7462231 38.0476371,32.9277573 38.0476371,31.0357254 Z" id="Shape"></path>
            <path d="M34.0953281,9.29920564 C33.7889961,9.82335323 33.1041685,10.0049947 32.568926,9.70386399 C32.0360406,9.40273326 31.8515524,8.72913496 32.1577031,8.20266892 L34.3314005,4.49912663 C34.6375513,3.97497905 35.3224695,3.79333757 35.8576213,4.09446829 C36.3928638,4.39559901 36.5751763,5.06919732 36.2690255,5.59566335 L34.0953281,9.29920564 Z" id="Shape"></path>
            <path d="M8.5021422,8.2048982 C8.80829293,8.72904578 8.62607114,9.40264409 8.09073798,9.70386399 C7.55785258,10.0049947 6.87302503,9.82335323 6.5668743,9.29920564 L4.3931769,5.59557418 C4.08702616,5.0714266 4.27160505,4.39782829 4.80458111,4.09669757 C5.33982361,3.79556684 6.02465116,3.97711915 6.33080189,4.50126674 L8.5021422,8.2048982 Z" id="Shape"></path>
        </g>
    </g>
</svg>