<?xml version="1.0" encoding="UTF-8"?>
<svg width="64px" height="64px" viewBox="0 0 64 64" version="1.1" xmlns="http://www.w3.org/2000/svg" xmlns:xlink="http://www.w3.org/1999/xlink">
    <!-- Generator: Sketch 49.1 (51147) - http://www.bohemiancoding.com/sketch -->
    <title>Cost Icon Hover Copy</title>
    <desc>Created with Sketch.</desc>
    <defs></defs>
    <g id="Cost-Icon-Hover-Copy" stroke="none" stroke-width="1" fill="none" fill-rule="evenodd">
        <g id="Cost-Icon" transform="translate(6.000000, 1.000000)" fill="#FFFFFF" fill-rule="nonzero">
            <path d="M49.7511359,0 L46.320073,0 C45.3730849,0 44.6044612,0.586197163 44.6044612,1.30842543 C44.6044612,2.0306537 43.8324599,2.61685086 42.8888493,2.61685086 C41.9452386,2.61685086 41.1733983,2.0306537 41.1733983,1.30842543 C41.1733983,0.586197163 40.4047745,0 39.4577864,0 C38.5107982,0 37.7421745,0.586197163 37.7421745,1.30842543 C37.7421745,2.0306537 36.9701733,2.61685086 36.0265626,2.61685086 C35.082952,2.61685086 34.3109508,2.0306537 34.3109508,1.30842543 C34.3109508,0.586197163 33.5426487,0 32.5956606,0 C31.6486724,0 30.8800487,0.586197163 30.8800487,1.30842543 C30.8800487,2.0306537 30.1080475,2.61685086 29.1644368,2.61685086 C28.2208262,2.61685086 27.4488249,2.0306537 27.4488249,1.30842543 C27.4488249,0.586197163 26.6803621,0 25.7333739,0 C24.7863858,0 24.017762,0.586197163 24.017762,1.30842543 C24.017762,2.0306537 23.2457608,2.61685086 22.3021502,2.61685086 C21.3587003,2.6167282 20.5866991,2.0306537 20.5866991,1.30842543 C20.5866991,0.586197163 19.8180754,0 18.8710873,0 C17.9240991,0 17.1554754,0.586197163 17.1554754,1.30842543 C17.1554754,2.0306537 16.3834742,2.61685086 15.4398635,2.61685086 C14.4962529,2.61685086 13.7242516,2.0306537 13.7242516,1.30842543 C13.7242516,0.586197163 12.9559496,0 12.0089614,0 C11.0619733,0 10.2933496,0.586197163 10.2933496,1.30842543 C10.2933496,2.0306537 9.52134835,2.61685086 8.57773769,2.61685086 C7.63412704,2.61685086 6.86212582,2.0306537 6.86212582,1.30842543 C6.86212582,0.586197163 6.09366294,0 5.14667478,0 L1.71561187,0 C0.768623712,0 0,0.586197163 0,1.30842543 L0,61.4941554 C0,62.2163836 0.768623712,62.8025808 1.71561187,62.8025808 L5.14667478,62.8025808 C6.09366294,62.8025808 6.86228665,62.2163836 6.86228665,61.4941554 C6.86228665,60.7719271 7.63428787,60.1857299 8.57789853,60.1857299 C9.52150918,60.1857299 10.2935104,60.7719271 10.2935104,61.4941554 C10.2935104,62.2163836 11.0621341,62.8025808 12.0091223,62.8025808 C12.9561104,62.8025808 13.7247341,62.2163836 13.7247341,61.4941554 C13.7247341,60.7719271 14.4967354,60.1857299 15.440346,60.1857299 C16.3839567,60.1857299 17.1559579,60.7719271 17.1559579,61.4941554 C17.1559579,62.2163836 17.9245816,62.8025808 18.8715698,62.8025808 C19.8185579,62.8025808 20.5866991,62.216261 20.5866991,61.4940327 C20.5866991,60.7718044 21.3587003,60.1856073 22.302311,60.1856073 C23.2459217,60.1856073 24.0179229,60.7718044 24.0179229,61.4940327 C24.0179229,62.216261 24.7865466,62.8024581 25.7335347,62.8024581 C26.6805229,62.8024581 27.4491466,62.216261 27.4491466,61.4940327 C27.4491466,60.7718044 28.2211478,60.1856073 29.1647585,60.1856073 C30.1083691,60.1856073 30.8803704,60.7718044 30.8803704,61.4940327 C30.8803704,62.216261 31.6489941,62.8024581 32.5959822,62.8024581 C33.5429704,62.8024581 34.3115941,62.216261 34.3115941,61.4940327 C34.3115941,60.7718044 35.0835953,60.1856073 36.027206,60.1856073 C36.9708166,60.1856073 37.7428178,60.7718044 37.7428178,61.4940327 C37.7428178,62.216261 38.5114416,62.8024581 39.4584297,62.8024581 C40.4054179,62.8024581 41.1740416,62.216261 41.1740416,61.4940327 C41.1740416,60.7718044 41.9460428,60.1856073 42.8896535,60.1856073 C43.8332641,60.1856073 44.6052653,60.7718044 44.6052653,61.4940327 C44.6052653,62.216261 45.373889,62.8024581 46.3208772,62.8024581 L49.7519401,62.8024581 C50.6989283,62.8024581 51.467552,62.216261 51.467552,61.4940327 L51.467552,1.30842543 C51.4667478,0.586197163 50.6981241,0 49.7511359,0 Z M48.0356849,60.1857299 L47.7405553,60.1857299 C47.0336917,58.6627703 45.1260445,57.5690017 42.8890101,57.5690017 C41.5714614,57.5690017 40.370517,57.9483924 39.4579472,58.5712652 C37.6360243,57.3256422 34.4175834,57.3256422 32.5956606,58.5712652 C30.7737377,57.3256422 27.5552968,57.3256422 25.7333739,58.5712652 C23.911451,57.3256422 20.6930101,57.3256422 18.8710873,58.5712652 C17.0491644,57.3256422 13.8307235,57.3256422 12.0088006,58.5712652 C11.09607,57.948515 9.89528644,57.5690017 8.57773769,57.5690017 C6.34070333,57.5690017 4.43289532,58.6627703 3.72619254,60.1857299 L3.43106291,60.1857299 L3.43106291,2.6167282 L3.72619254,2.6167282 C4.43305616,4.13968781 6.34070333,5.2334564 8.57773769,5.2334564 C9.89528644,5.2334564 11.0962308,4.85406577 12.0088006,4.23119296 C13.8307235,5.47681593 17.0491644,5.47681593 18.8710873,4.23119296 C20.6930101,5.47681593 23.911451,5.47681593 25.7333739,4.23119296 C27.5552968,5.47681593 30.7737377,5.47681593 32.5956606,4.23119296 C34.4175834,5.47681593 37.6360243,5.47681593 39.4579472,4.23119296 C40.3706778,4.85394311 41.5714614,5.2334564 42.8890101,5.2334564 C45.1260445,5.2334564 47.0338525,4.13968781 47.7405553,2.6167282 L48.0356849,2.6167282 L48.0356849,60.1857299 Z" id="Shape"></path>
            <path d="M39.8865204,14.4516129 L7.54612713,14.4516129 C6.65353507,14.4516129 5.92906199,15.3765517 5.92906199,16.516129 C5.92906199,17.6557063 6.65353507,18.5806452 7.54612713,18.5806452 L39.8863688,18.5806452 C40.7789608,18.5806452 41.5034339,17.6557063 41.5034339,16.516129 C41.5034339,15.3765517 40.7791124,14.4516129 39.8865204,14.4516129 Z" id="Shape"></path>
            <path d="M39.8865204,24.7741935 L7.54612713,24.7741935 C6.65353507,24.7741935 5.92906199,25.6991324 5.92906199,26.8387097 C5.92906199,27.978287 6.65353507,28.9032258 7.54612713,28.9032258 L39.8863688,28.9032258 C40.7789608,28.9032258 41.5034339,27.978287 41.5034339,26.8387097 C41.5034339,25.6991324 40.7791124,24.7741935 39.8865204,24.7741935 Z" id="Shape"></path>
            <path d="M20.1587663,37.1612903 L7.51018965,37.1612903 C6.63743446,37.1612903 5.92906199,38.0862292 5.92906199,39.2258065 C5.92906199,40.3653837 6.63743446,41.2903226 7.51018965,41.2903226 L20.1587663,41.2903226 C21.0315215,41.2903226 21.739894,40.3653837 21.739894,39.2258065 C21.739894,38.0862292 21.0315215,37.1612903 20.1587663,37.1612903 Z" id="Shape"></path>
            <path d="M20.1587663,47.483871 L7.51018965,47.483871 C6.63743446,47.483871 5.92906199,48.4088098 5.92906199,49.5483871 C5.92906199,50.6879644 6.63743446,51.6129032 7.51018965,51.6129032 L20.1587663,51.6129032 C21.0315215,51.6129032 21.739894,50.6879644 21.739894,49.5483871 C21.739894,48.4088098 21.0315215,47.483871 20.1587663,47.483871 Z" id="Shape"></path>
            <g id="Group-2" transform="translate(28.821829, 35.096774)">
                <path d="M6.17330381,9.75699643 L5.91483215,9.71054472 C3.49809432,9.29465669 2.37160256,8.60016205 2.37160256,7.52067808 C2.37160256,6.32174683 4.00325356,5.30872614 5.93384233,5.30872614 C7.79083615,5.30872614 9.38691255,6.24657385 9.49130175,7.40123081 C9.54344077,8.01173908 10.1577695,8.45188983 10.7719871,8.40989665 C11.4242251,8.3589864 11.9080396,7.82147368 11.8534548,7.21324652 C11.6400072,4.86629427 9.09520088,3.09677419 5.93384233,3.09677419 C2.66097965,3.09677419 0,5.08092609 0,7.52078176 C0,9.79245734 1.84509857,11.2612855 5.69193508,11.9226003 L5.9528525,11.9690521 C8.36236424,12.382659 9.48652142,13.0771536 9.48652142,14.1566376 C9.48652142,15.3555688 7.85487042,16.3685895 5.92428165,16.3685895 C4.06728783,16.3685895 2.47121143,15.4284607 2.36682223,14.2760849 C2.31468321,13.6655766 1.67900968,13.1966009 1.08613683,13.267419 C0.43389888,13.3183293 -0.0499156026,13.8535609 0.0046691655,14.4618917 C0.218116731,16.8110214 2.7629231,18.5806452 5.92428165,18.5806452 C9.19714433,18.5806452 11.858124,16.5964933 11.858124,14.1566376 C11.858124,11.8871394 10.0178057,10.418415 6.17330381,9.75699643 Z" id="Shape"></path>
                <path d="M6.11434518,0 C5.29616019,0 4.63207968,0.501021584 4.63207968,1.11830869 L4.63207968,19.0107236 C4.63207968,19.6280107 5.29616019,20.1290323 6.11434518,20.1290323 C6.93253016,20.1290323 7.59661067,19.6280107 7.59661067,19.0107236 L7.59661067,1.11830869 C7.59661067,0.501021584 6.93253016,0 6.11434518,0 Z" id="Shape"></path>
            </g>
        </g>
    </g>
</svg>