<?xml version="1.0" encoding="UTF-8"?>
<svg width="64px" height="64px" viewBox="0 0 64 64" version="1.1" xmlns="http://www.w3.org/2000/svg" xmlns:xlink="http://www.w3.org/1999/xlink">
    <!-- Generator: Sketch 49.1 (51147) - http://www.bohemiancoding.com/sketch -->
    <title>Carbon Emission Hover Copy</title>
    <desc>Created with Sketch.</desc>
    <defs></defs>
    <g id="Carbon-Emission-Hover-Copy" stroke="none" stroke-width="1" fill="none" fill-rule="evenodd">
        <g id="carbon-dioxide" transform="translate(0.000000, 6.000000)" fill="#FFFFFF" fill-rule="nonzero">
            <path d="M48.049625,13.1868646 C47.231625,9.78426796 45.3705,6.69393646 42.701,4.35194751 C39.56375,1.59961326 35.529875,0.0839088398 31.34225,0.0839088398 C21.8705,0.0839088398 14.164625,7.74720994 14.164625,17.1666298 C14.164625,17.3128177 14.1665,17.4590055 14.17025,17.605442 C14.024875,17.6007182 13.87975,17.5984807 13.734625,17.5984807 C6.161375,17.5984807 0,23.7256906 0,31.2573481 C0,38.7888812 6.161375,44.9162155 13.73475,44.9162155 L48.04725,44.9162155 C56.843625,44.9162155 64,37.7993785 64,29.0516022 C64,20.3041989 56.84525,13.1877348 48.049625,13.1868646 Z M48.04725,41.1868094 L13.73475,41.1868094 C8.229125,41.1868094 3.75,36.7324309 3.75,31.2573481 C3.75,25.7822652 8.229125,21.3277624 13.73475,21.3277624 C14.443875,21.3277624 15.159125,21.4044613 15.860375,21.5556215 L18.570375,22.1397514 L18.106,19.421105 C17.979125,18.6778591 17.91475,17.9193232 17.91475,17.1667541 C17.91475,9.80366022 23.938375,3.81331492 31.342375,3.81331492 C38.044375,3.81331492 43.765625,8.78668508 44.650375,15.3819199 L44.892375,17.1856492 L46.7115,16.9889917 C47.157125,16.9407597 47.6065,16.916395 48.04725,16.916395 C54.775875,16.916395 60.25,22.3602762 60.25,29.0517265 C60.25,35.7431768 54.775875,41.1868094 48.04725,41.1868094 Z" id="Shape"></path>
            <path d="M29.01525,30.3603315 C28.866625,30.7233149 28.671,31.0289917 28.427875,31.2773619 C28.18475,31.526105 27.917875,31.7276105 27.627625,31.8818785 C27.337,32.036395 27.033125,32.1507597 26.715875,32.2243508 C26.398375,32.2983149 26.091,32.3351105 25.794,32.3351105 C25.213125,32.3351105 24.689875,32.2177624 24.223875,31.9825691 C23.757875,31.7477486 23.359375,31.4285221 23.0285,31.025511 C22.697375,30.6225 22.444125,30.1591989 22.26875,29.6352348 C22.093,29.111395 22.005375,28.5674171 22.005375,28.0033011 C22.005375,27.4794613 22.0795,26.9625829 22.22825,26.4519199 C22.37675,25.9416298 22.60625,25.4847928 22.917125,25.0819061 C23.227625,24.678895 23.61925,24.3499724 24.092125,24.0946409 C24.56475,23.8396823 25.118375,23.711768 25.753375,23.711768 C26.050375,23.711768 26.35425,23.7419751 26.665125,23.8023895 C26.975625,23.8628039 27.2795,23.9704558 27.57675,24.1247238 C27.87375,24.2792403 28.147125,24.4807459 28.39725,24.729116 C28.647,24.9777348 28.853,25.2901243 29.015125,25.6660359 L31.567875,23.893011 C31.081625,22.9661602 30.342125,22.2140884 29.3495,21.6364227 C28.35675,21.0590055 27.184875,20.7699862 25.834375,20.7699862 C24.699875,20.7699862 23.686875,20.978453 22.795375,21.3946409 C21.904,21.8110773 21.147375,22.3551796 20.52625,23.0265746 C19.904875,23.6983425 19.43225,24.4606077 19.108,25.3133702 C18.783875,26.1665055 18.62175,27.0228729 18.62175,27.8822238 C18.62175,28.7958978 18.794,29.6955249 19.138375,30.5820994 C19.48275,31.4685497 19.969,32.2612707 20.597125,32.9595166 C21.225125,33.6581354 21.97475,34.2187707 22.846,34.6419199 C23.717125,35.0649448 24.6725,35.2765193 25.712875,35.2765193 C26.307,35.2765193 26.914875,35.2025552 27.53625,35.0548757 C28.157375,34.9071961 28.744875,34.6922652 29.298875,34.4100829 C29.8525,34.1280249 30.34225,33.7788398 30.76775,33.3624033 C31.193125,32.9462155 31.513875,32.475953 31.730125,31.951989 L29.01525,30.3603315 Z" id="Shape"></path>
            <path d="M46.21625,25.3841022 C45.878375,24.510953 45.39875,23.7319061 44.77775,23.046837 C44.156375,22.361768 43.40675,21.8112017 42.528875,21.3947652 C41.65075,20.9785773 40.67825,20.7701105 39.611375,20.7701105 C38.571125,20.7701105 37.61225,20.9685083 36.7345,21.364558 C35.856375,21.7608564 35.0965,22.2912845 34.45525,22.9562155 C33.813625,23.6211464 33.31375,24.3902486 32.956,25.2631492 C32.598,26.1364227 32.419125,27.0431354 32.419125,27.983163 C32.419125,28.9100138 32.591375,29.8100138 32.93575,30.6830387 C33.280125,31.5563122 33.762875,32.3320028 34.384375,33.0101105 C35.0055,33.6885912 35.755,34.2360497 36.63325,34.6522376 C37.511,35.0687983 38.483625,35.2768923 39.550625,35.2768923 C40.5905,35.2768923 41.549375,35.0753867 42.427625,34.6723757 C43.3055,34.269489 44.06175,33.7354558 44.69675,33.0706492 C45.3315,32.4057182 45.827875,31.636989 46.185875,30.7637155 C46.543625,29.8906906 46.72275,28.9841022 46.72275,28.0437017 C46.72275,27.1439503 46.55375,26.2573757 46.21625,25.3841022 Z M43.10625,29.5648757 C42.95075,30.0821271 42.717875,30.5455525 42.40725,30.9550276 C42.096375,31.3648757 41.70475,31.6974033 41.232125,31.9523619 C40.75925,32.2076934 40.2055,32.3352348 39.570875,32.3352348 C38.963125,32.3352348 38.42275,32.2144061 37.950125,31.9725 C37.477125,31.7307182 37.082125,31.408384 36.764875,31.0053729 C36.447375,30.6023619 36.20775,30.1425414 36.045625,29.6251657 C35.8835,29.1082873 35.8025,28.5743785 35.8025,28.0234392 C35.8025,27.4864227 35.880125,26.9589779 36.0355,26.4418508 C36.190625,25.9248481 36.427125,25.4646547 36.744625,25.0616436 C37.061875,24.6586326 37.45375,24.3331906 37.919625,24.0844475 C38.385625,23.835953 38.93575,23.7116436 39.570875,23.7116436 C40.17875,23.7116436 40.715625,23.8293646 41.181625,24.0641851 C41.647625,24.2993785 42.042625,24.6151243 42.366875,25.011174 C42.691,25.4074724 42.93425,25.8643094 43.09625,26.3811878 C43.258375,26.8984392 43.339375,27.4323481 43.339375,27.9829144 C43.33925,28.5205525 43.261375,29.0478729 43.10625,29.5648757 Z" id="Shape"></path>
            <path d="M48.897,36.4122099 C48.954,36.3494337 49.037875,36.2785773 49.148875,36.1996409 C49.259625,36.120953 49.380125,36.0421409 49.51,35.9633287 C49.639875,35.8846409 49.771375,35.8074448 49.904375,35.7317403 C50.037375,35.6561602 50.1515,35.5900276 50.2465,35.5332182 C50.38575,35.4514227 50.522125,35.3616713 50.655125,35.2638398 C50.78825,35.1662569 50.9085,35.0527624 51.01625,34.923605 C51.123875,34.7945718 51.211125,34.648011 51.277625,34.4841713 C51.344125,34.3204558 51.377375,34.134489 51.377375,33.9265193 C51.377375,33.4225691 51.19525,33.0225414 50.830875,32.7261878 C50.4665,32.4300829 49.94225,32.2820304 49.258,32.2820304 C48.979125,32.2820304 48.711625,32.3072652 48.455,32.3576105 C48.198375,32.4080801 47.962375,32.4757044 47.747,32.5608564 C47.5315,32.645884 47.33825,32.7419751 47.16725,32.8491298 C46.996125,32.9562845 46.859875,33.0664227 46.7585,33.1799171 L47.727875,34.295221 C47.911625,34.0872514 48.101625,33.9188122 48.298125,33.7895304 C48.494375,33.6604972 48.72575,33.595732 48.991875,33.595732 C49.22625,33.595732 49.40675,33.6494337 49.533625,33.7564641 C49.66025,33.8637431 49.72375,34.0054558 49.72375,34.1817265 C49.72375,34.2699862 49.698375,34.3471823 49.64775,34.4133149 C49.597,34.4794475 49.513125,34.5535359 49.395875,34.6354558 C49.278625,34.7175 49.12025,34.8119751 48.92075,34.9190055 C48.721125,35.0262845 48.4725,35.1616575 48.17475,35.3254972 C47.895875,35.4831215 47.664625,35.6437293 47.481,35.8074448 C47.297125,35.9712845 47.1515,36.1492956 47.04375,36.3413536 C46.936,36.5336602 46.86,36.7462293 46.81575,36.9793094 C46.771375,37.2123895 46.74925,37.4770442 46.74925,37.7731492 L51.482,37.7731492 L51.482,36.4122099 L48.897,36.4122099 Z" id="Shape"></path>
        </g>
    </g>
</svg>