<?xml version="1.0" encoding="UTF-8"?>
<svg width="64px" height="64px" viewBox="0 0 64 64" version="1.1" xmlns="http://www.w3.org/2000/svg" xmlns:xlink="http://www.w3.org/1999/xlink">
    <!-- Generator: Sketch 49.1 (51147) - http://www.bohemiancoding.com/sketch -->
    <title>Usage By Rooms Hover Copy</title>
    <desc>Created with Sketch.</desc>
    <defs></defs>
    <g id="Usage-By-Rooms-Hover-Copy" stroke="none" stroke-width="1" fill="none" fill-rule="evenodd">
        <g id="Rooms-Icon" transform="translate(1.000000, 1.000000)" fill="#FFFFFF" fill-rule="nonzero">
            <path d="M59.6698805,0 L18.0881339,0 C16.9399794,0 16.009003,0.943901419 16.009003,2.108278 L16.009003,45.6783887 C16.009003,46.842639 16.9398549,47.7866667 18.0881339,47.7866667 L59.6698805,47.7866667 C60.818035,47.7866667 61.7490114,46.8427652 61.7490114,45.6783887 L61.7490114,2.10815173 C61.7490114,0.943901419 60.8181595,0 59.6698805,0 Z M57.5908741,16.8658452 L51.3536059,16.8658452 C50.2054514,16.8658452 49.274475,17.8097466 49.274475,18.9741232 C49.274475,20.1384998 50.2053269,21.0824012 51.3536059,21.0824012 L57.5908741,21.0824012 L57.5908741,43.5702369 L31.2556725,43.5702369 L31.2556725,37.2455292 C31.2556725,36.0812789 30.3248205,35.1372512 29.1765415,35.1372512 C28.0282625,35.1372512 27.0974106,36.0811526 27.0974106,37.2455292 L27.0974106,43.5702369 L20.1671403,43.5702369 L20.1671403,4.21642973 L27.0974106,4.21642973 L27.0974106,27.4069827 C27.0974106,28.571233 28.0282625,29.5152607 29.1765415,29.5152607 C30.3248205,29.5152607 31.2556725,28.5713593 31.2556725,27.4069827 L31.2556725,21.0822749 L41.651078,21.0822749 C42.7992325,21.0822749 43.7302089,20.1383735 43.7302089,18.9739969 C43.7302089,17.8096204 42.799357,16.8657189 41.651078,16.8657189 L31.2556725,16.8657189 L31.2556725,4.21642973 L57.5908741,4.21642973 L57.5907496,16.8658452 L57.5908741,16.8658452 Z" id="Shape"></path>
            <path d="M61.1580261,54.4098536 L57.1119271,50.617616 C56.3219271,49.877091 55.0407675,49.877091 54.2506463,50.617616 C53.4605252,51.358141 53.4605252,52.5587683 54.2506463,53.2992933 L54.8432372,53.8548006 L16.0542262,53.8548006 L16.6468171,53.2992933 C17.4369382,52.5588818 17.4369382,51.3582546 16.6469383,50.6177296 C15.8569383,49.8772045 14.5757786,49.8772045 13.7856575,50.6177296 L9.7395585,54.4099672 C8.94398405,55.1548082 8.95767786,56.3602057 9.7395585,57.092326 L13.7856575,60.8845637 C14.5756575,61.6250887 15.8568171,61.6252022 16.6469383,60.8845637 C17.4370594,60.1440386 17.4370594,58.9434114 16.6469383,58.2028863 L16.0542262,57.6472654 L54.843116,57.6472654 L54.2505251,58.2027728 C53.460404,58.9432978 53.460404,60.1439251 54.2505251,60.8844501 C55.0405251,61.6249751 56.3216848,61.6250887 57.1118059,60.8844501 L61.1579049,57.0922124 C61.9469354,56.3535046 61.9451177,55.1467442 61.1580261,54.4098536 Z" id="Shape"></path>
            <path d="M8.18155468,42.5387186 L7.62324438,43.1331556 L7.62324438,6.92938567 L8.18155468,7.52382274 C8.92570207,8.31640549 10.1325016,8.31652705 10.8767632,7.52382274 C11.6210247,6.73136155 11.6211388,5.4462105 10.8767632,4.65362774 L7.06504822,0.594437064 C6.32090083,-0.198145688 5.11410129,-0.198145688 4.36983975,0.594437064 L0.558238963,4.65350618 C-0.186022578,5.44596737 -0.186136729,6.73111842 0.558238963,7.52370117 C1.30238635,8.31628393 2.5091859,8.31628393 3.25344744,7.52370117 L3.81164359,6.92926411 L3.81164359,43.1329125 L3.25344744,42.5384755 C2.50930005,41.7458927 1.3025005,41.7458927 0.558238963,42.5384755 C-0.186022578,43.3309367 -0.186136729,44.6160877 0.558238963,45.4086705 L4.36983975,49.4677396 C5.11398714,50.2603223 6.32078668,50.2604439 7.06504822,49.4677396 L10.876649,45.4086705 C11.6209105,44.6162093 11.6210247,43.3310582 10.876649,42.5384755 C10.1326158,41.7461358 8.92581622,41.7461358 8.18155468,42.5387186 Z" id="Shape"></path>
        </g>
    </g>
</svg>